<svg width="38" height="38" fill="none" xmlns="http://www.w3.org/2000/svg"><path d="m3.854 34.281 2.133-7.786a14.995 14.995 0 0 1-2.007-7.512c.004-8.285 6.745-15.025 15.031-15.025a14.936 14.936 0 0 1 10.632 4.406 14.936 14.936 0 0 1 4.399 10.63c-.004 8.286-6.747 15.027-15.031 15.027h-.006a15.015 15.015 0 0 1-7.183-1.83l-7.968 2.09Z" fill="#EEE"/><path d="M3.854 34.677a.395.395 0 0 1-.382-.5l2.09-7.628a15.421 15.421 0 0 1-1.977-7.565C3.588 10.48 10.508 3.562 19.01 3.562c4.125.002 8 1.608 10.912 4.523a15.328 15.328 0 0 1 4.514 10.91c-.003 8.503-6.923 15.422-15.426 15.422-2.525 0-5.022-.624-7.239-1.803l-7.818 2.05a.362.362 0 0 1-.1.013Z" fill="#fff" fill-opacity=".38"/><path d="M19.011 3.959a14.936 14.936 0 0 1 10.632 4.406 14.936 14.936 0 0 1 4.399 10.63c-.004 8.285-6.747 15.026-15.031 15.026h-.006c-2.515 0-4.988-.631-7.183-1.83l-7.968 2.09 2.133-7.785a14.995 14.995 0 0 1-2.007-7.512c.004-8.285 6.745-15.025 15.031-15.025Zm0-.792c-8.721 0-15.82 7.095-15.823 15.817 0 2.665.672 5.292 1.948 7.617L3.09 34.074a.79.79 0 0 0 .965.974l7.669-2.01a15.855 15.855 0 0 0 7.28 1.776c8.728 0 15.826-7.096 15.83-15.818a15.72 15.72 0 0 0-4.63-11.19 15.73 15.73 0 0 0-11.193-4.639Z" fill="#CFD8DC"/><path d="M27.848 10.158a12.408 12.408 0 0 0-8.833-3.662c-6.89 0-12.495 5.602-12.498 12.488 0 2.36.66 4.657 1.91 6.647l.298.472-1.263 4.609 4.729-1.24.457.27a12.469 12.469 0 0 0 6.358 1.741h.005c6.886 0 12.49-5.602 12.493-12.489 0-3.337-1.297-6.475-3.656-8.836Z" fill="#39694C"/><path fill-rule="evenodd" clip-rule="evenodd" d="M15.254 12.702c-.281-.626-.577-.638-.846-.65-.219-.009-.47-.008-.72-.008s-.656.094-1 .47c-.345.376-1.316 1.284-1.316 3.132s1.346 3.634 1.534 3.884c.187.25 2.598 4.163 6.415 5.67 3.173 1.25 3.819 1.001 4.507.939.69-.063 2.223-.908 2.535-1.785.313-.878.313-1.629.22-1.786-.095-.156-.345-.25-.72-.438-.375-.189-2.222-1.097-2.567-1.222-.344-.125-.594-.187-.845.189-.25.375-.97 1.221-1.19 1.471-.218.251-.438.283-.813.095-.375-.189-1.585-.585-3.02-1.864-1.117-.995-1.87-2.225-2.09-2.6-.219-.376-.023-.58.165-.767.169-.169.376-.438.564-.658.188-.22.25-.376.375-.626.125-.251.063-.47-.032-.658-.092-.188-.822-2.046-1.156-2.788Z" fill="#EEE"/></svg>