<svg width="18" height="18" viewBox="0 0 18 18" fill="none" xmlns="http://www.w3.org/2000/svg">
<path fill-rule="evenodd" clip-rule="evenodd" d="M0.853553 0.146447C0.658291 -0.0488155 0.341709 -0.0488155 0.146447 0.146447C-0.0488155 0.341709 -0.0488155 0.658291 0.146447 0.853553L8.29289 9L0.146446 17.1464C-0.0488148 17.3417 -0.0488148 17.6583 0.146446 17.8536C0.341709 18.0488 0.658291 18.0488 0.853554 17.8536L9 9.70711L17.1464 17.8536C17.3417 18.0488 17.6583 18.0488 17.8536 17.8536C18.0488 17.6583 18.0488 17.3417 17.8536 17.1464L9.70711 9L17.8536 0.853553C18.0488 0.658291 18.0488 0.341709 17.8536 0.146447C17.6583 -0.0488155 17.3417 -0.0488155 17.1464 0.146447L9 8.29289L0.853553 0.146447Z" fill="white"/>
</svg>
