<svg width="38" height="38" viewBox="0 0 38 38" fill="none" xmlns="http://www.w3.org/2000/svg">
<path d="M3.85376 34.2812L5.98651 26.4952C4.67076 24.2168 3.97884 21.6312 3.97963 18.9831C3.98359 10.6983 10.7254 3.95801 19.011 3.95801C23.0319 3.95959 26.805 5.52472 29.6431 8.36442C32.4804 11.2049 34.0432 14.9796 34.0416 18.9949C34.0384 27.2797 27.295 34.0208 19.011 34.0208H19.0047C16.4896 34.02 14.0172 33.389 11.8219 32.1912L3.85376 34.2812Z" fill="#EEEEEE"/>
<path d="M3.85374 34.6774C3.74924 34.6774 3.64791 34.6362 3.5727 34.5602C3.47374 34.4597 3.43495 34.3132 3.47216 34.1778L5.56136 26.5493C4.2662 24.2488 3.58299 21.6362 3.58457 18.9842C3.58774 10.4801 10.5077 3.5625 19.011 3.5625C23.1356 3.56408 27.0108 5.17038 29.9233 8.08529C32.8359 11.001 34.439 14.8754 34.4374 18.9952C34.4342 27.4985 27.5135 34.4169 19.011 34.4169C16.4864 34.4161 13.9887 33.7931 11.772 32.6143L3.95428 34.6639C3.92103 34.6734 3.88778 34.6774 3.85374 34.6774Z" fill="white" fill-opacity="0.38"/>
<path d="M19.011 3.95866C23.0319 3.96024 26.805 5.52537 29.6431 8.36508C32.4804 11.2056 34.0432 14.9802 34.0416 18.9956C34.0384 27.2804 27.295 34.0214 19.011 34.0214H19.0047C16.4896 34.0206 14.0172 33.3897 11.8219 32.1919L3.85376 34.2819L5.98651 26.4958C4.67076 24.2174 3.97884 21.6318 3.97963 18.9837C3.98359 10.6989 10.7254 3.95866 19.011 3.95866ZM19.011 3.16699C10.29 3.16699 3.19193 10.2619 3.18797 18.9837C3.18718 21.6492 3.86009 24.276 5.13626 26.6011L3.0898 34.0737C3.01539 34.3468 3.09138 34.6381 3.29088 34.8392C3.4413 34.9912 3.64476 35.0743 3.85376 35.0743C3.92105 35.0743 3.98834 35.0656 4.05484 35.0482L11.7237 33.0374C13.9626 34.1995 16.4721 34.8131 19.0047 34.8139C27.732 34.8139 34.8301 27.7182 34.834 18.9964C34.8356 14.7697 33.1913 10.7955 30.2044 7.80616C27.2158 4.81603 23.2409 3.16858 19.011 3.16699Z" fill="#CFD8DC"/>
<path d="M27.8478 10.1583C25.4886 7.79759 22.3528 6.49689 19.0151 6.49609C12.1245 6.49609 6.52026 12.0979 6.51709 18.9838C6.5163 21.3438 7.17655 23.6412 8.42738 25.6307L8.72505 26.1033L7.46234 30.7116L12.191 29.4718L12.6478 29.7426C14.5652 30.881 16.7644 31.4827 19.0064 31.4835H19.0112C25.8971 31.4835 31.5013 25.8808 31.5037 18.9941C31.5045 15.6573 30.2069 12.5191 27.8478 10.1583Z" fill="#39694C"/>
<path fill-rule="evenodd" clip-rule="evenodd" d="M15.2539 12.7018C14.9728 12.0764 14.6767 12.0638 14.4084 12.0527C14.1891 12.0432 13.9389 12.044 13.6887 12.044C13.4386 12.044 13.0316 12.1382 12.6873 12.5142C12.3429 12.8903 11.3723 13.7983 11.3723 15.646C11.3723 17.4938 12.7181 19.2798 12.9058 19.53C13.0934 19.7801 15.504 23.6933 19.3214 25.1991C22.4936 26.4499 23.1396 26.2013 23.8284 26.1388C24.5171 26.0763 26.0506 25.2308 26.3633 24.3536C26.676 23.4764 26.676 22.7251 26.5826 22.5684C26.4884 22.4116 26.2382 22.3182 25.863 22.1298C25.4877 21.9414 23.6408 21.0333 23.2964 20.9083C22.952 20.7832 22.7019 20.7206 22.4509 21.0967C22.2007 21.4719 21.4811 22.3182 21.2618 22.5684C21.0425 22.8193 20.8232 22.851 20.448 22.6626C20.0727 22.4742 18.8631 22.0783 17.4278 20.799C16.3115 19.8039 15.5579 18.5744 15.3386 18.1984C15.1193 17.8231 15.3148 17.6197 15.5032 17.432C15.6719 17.2634 15.8785 16.9935 16.0669 16.7742C16.2545 16.5549 16.3171 16.3981 16.4421 16.148C16.5672 15.897 16.5047 15.6777 16.4105 15.4901C16.3179 15.3017 15.5879 13.4444 15.2539 12.7018Z" fill="#EEEEEE"/>
</svg>
